<?xml version="1.0" standalone="no"?><!DOCTYPE svg PUBLIC "-//W3C//DTD SVG 1.1//EN" "http://www.w3.org/Graphics/SVG/1.1/DTD/svg11.dtd"><svg t="1604847353477" class="icon" viewBox="0 0 1024 1024" version="1.1" xmlns="http://www.w3.org/2000/svg" p-id="1163" data-darkreader-inline-fill="" width="250" height="250" xmlns:xlink="http://www.w3.org/1999/xlink"><defs><style type="text/css">[data-darkreader-inline-fill] { fill: var(--darkreader-inline-fill)  !important; }
* {  }
</style></defs><path d="M777.515 131.67a53.333 53.333 0 0 1 0 75.434l-48.768 48.725h49.92a160 160 0 0 1 160 160.043v320a160 160 0 0 1-160 160H245.333a160 160 0 0 1-160-160v-320a160 160 0 0 1 160-160h49.75L246.4 207.147a53.333 53.333 0 1 1 75.392-75.435l113.152 113.152c3.37 3.37 6.187 7.04 8.448 10.965H580.48a52.046 52.046 0 0 1 8.49-11.008L702.08 131.67a53.333 53.333 0 0 1 75.435 0z m1.152 231.253H245.333a53.333 53.333 0 0 0-53.205 49.365l-0.128 4.01v320c0 28.118 21.76 51.158 49.365 53.163l3.968 0.171h533.334a53.333 53.333 0 0 0 53.205-49.365l0.128-3.968v-320c0-29.44-23.893-53.334-53.333-53.334zM352 469.589c29.44 0 53.333 23.894 53.333 53.334v53.333a53.333 53.333 0 1 1-106.666 0v-53.333c0-29.44 23.893-53.334 53.333-53.334z m320 0c29.44 0 53.333 23.894 53.333 53.334v53.333a53.333 53.333 0 1 1-106.666 0v-53.333c0-29.44 23.893-53.334 53.333-53.334z" fill="#1296db" p-id="1164" data-darkreader-inline-fill="" style="--darkreader-inline-fill:#15b4ff;"></path></svg>